<?xml version="1.0"?>
<VTKFile type="UnstructuredGrid" version="0.1" byte_order="LittleEndian">
  <UnstructuredGrid><Piece NumberOfPoints="59" NumberOfCells="59">
    <Points><DataArray type="Float64" NumberOfComponents="3" format="ascii">160.1499939 0 100.1600037 160.1499939 -11.03999996 100.1600037 160.1499939 -22.06999969 100.1600037 160.1499939 -31.37999916 101.4700012 160.1499939 -40.68999863 102.7799988 160.1499939 -50 104.0899963 163.4600067 -58.43000031 104.0899963 166.7799988 -66.86000061 104.0899963 170.1000061 -75.29000092 104.0899963 173.4199982 -83.70999908 104.0899963 176.7400055 -92.13999939 104.0899963 180.0599976 -100.5699997 104.0899963 183.3800049 -109 104.0899963 186.6999969 -117.4300003 104.0899963 190.0200043 -125.8600006 104.0899963 193.3300018 -134.2899933 104.0899963 196.6499939 -142.7100067 104.0899963 199.9700012 -151.1399994 104.0899963 203.2899933 -159.5700073 104.0899963 206.6100006 -168 104.0899963 160.1499939 11.03999996 100.1600037 160.1499939 22.06999969 100.1600037 160.1499939 31.37999916 101.4700012 160.1499939 40.68999863 102.7799988 160.1499939 50 104.0899963 163.4600067 58.43000031 104.0899963 166.7799988 66.86000061 104.0899963 170.1000061 75.29000092 104.0899963 173.4199982 83.70999908 104.0899963 176.7400055 92.13999939 104.0899963 180.0599976 100.5699997 104.0899963 183.3800049 109 104.0899963 186.6999969 117.4300003 104.0899963 190.0200043 125.8600006 104.0899963 193.3300018 134.2899933 104.0899963 196.6499939 142.7100067 104.0899963 199.9700012 151.1399994 104.0899963 203.2899933 159.5700073 104.0899963 206.6100006 168 104.0899963 176.5256905 16.83 100.1600037 164.9684879 45.93 103.517388 165.4565038 54.2175 104.0899963 176.2039148 79.5 104.0899963 176.2039148 79.5 104.0899963 186.9523887 104.785 104.0899963 186.9523887 104.785 104.0899963 197.7008625 130.07 104.0899963 197.7008625 130.07 104.0899963 208.4472109 155.35 104.0899963 164.9684879 -45.93 103.517388 176.5256905 -16.83 100.1600037 176.2039148 -79.5 104.0899963 165.4565038 -54.2175 104.0899963 186.9523887 -104.785 104.0899963 176.2039148 -79.5 104.0899963 197.7008625 -130.07 104.0899963 186.9523887 -104.785 104.0899963 208.4472109 -155.35 104.0899963 197.7008625 -130.07 104.0899963</DataArray></Points>
    <Cells>
      <DataArray type="Int32" Name="connectivity" format="ascii">0 1 2 3 4 5 6 7 8 9 10 11 12 13 14 15 16 17 18 19 20 21 22 23 24 25 26 27 28 29 30 31 32 33 34 35 36 37 38 39 40 41 42 43 44 45 46 47 48 49 50 51 52 53 54 55 56 57 58</DataArray>
      <DataArray type="Int32" Name="offsets" format="ascii">1 2 3 4 5 6 7 8 9 10 11 12 13 14 15 16 17 18 19 20 21 22 23 24 25 26 27 28 29 30 31 32 33 34 35 36 37 38 39 40 41 42 43 44 45 46 47 48 49 50 51 52 53 54 55 56 57 58 59</DataArray>
      <DataArray type="UInt8" Name="types" format="ascii">1 1 1 1 1 1 1 1 1 1 1 1 1 1 1 1 1 1 1 1 1 1 1 1 1 1 1 1 1 1 1 1 1 1 1 1 1 1 1 1 1 1 1 1 1 1 1 1 1 1 1 1 1 1 1 1 1 1 1</DataArray>
    </Cells>
  </Piece></UnstructuredGrid>
</VTKFile>
